# xmcd
#
# Track frame offsets:
#	150
#	10080
#	25057
#	41027
#	56085
#	65950
#	82900
#	100090
#	116812
#	131562
#	145732
#
# Disc length: 2209 seconds
#
# Revision: 1
# Processed by: cddbd v1.5.1PL0 Copyright (c) Steve Scherf et al.
# Submitted via: audiograbber 1.80.04
#
DISCID=94089f0b
DTITLE=Roger Williams - Route 2 To Amherst
DYEAR=2000
DGENRE=Bluegrass
TTITLE0=Roanoke
TTITLE1=Johnathan's Lullaby
TTITLE2=Hard Times, Over Easy
TTITLE3=No One Now
TTITLE4=Fire On The Mountain
TTITLE5=Pickin' In Holland
TTITLE6=Ridin' The Bull
TTITLE7=Bus Bounce
TTITLE8=Bouquet Of Roses
TTITLE9=Rt. #2 To Amherst
TTITLE10=Water Is Wide
EXTD=
EXTT0=
EXTT1=
EXTT2=
EXTT3=
EXTT4=
EXTT5=
EXTT6=
EXTT7=
EXTT8=
EXTT9=
EXTT10=
PLAYORDER=
